<svg xmlns="http://www.w3.org/2000/svg" fill="none" viewBox="0 0 106 56"><path d="M25.12 0C11.254 0 0 11.236 0 25.078c0 13.843 11.28 25.079 25.148 25.079s25.12-11.208 25.12-25.079C50.268 11.208 38.985 0 25.12 0m.028 32.68a7.584 7.584 0 0 1-7.614-7.602c0-4.218 3.39-7.6 7.614-7.6a7.583 7.583 0 0 1 7.614 7.6 7.584 7.584 0 0 1-7.614 7.602M67.546 6.868A7.227 7.227 0 0 0 60.324 0a7.213 7.213 0 0 0-7.217 6.798h-.021V42.93c0 3.99 3.241 7.227 7.238 7.227s7.239-3.236 7.239-7.227c0-.115-.012-.227-.017-.341h.017V6.869h-.02zm36.612 31.202-5.818-5.81 4.787-4.78a7.2 7.2 0 0 0 2.871-5.754c0-3.99-3.241-7.227-7.239-7.227a7.22 7.22 0 0 0-5.631 2.694l-4.941 4.933-4.833-4.825a7.22 7.22 0 0 0-5.812-2.93c-3.997 0-7.238 3.235-7.238 7.226a7.2 7.2 0 0 0 2.632 5.573l5.098 5.09-4.6 4.592a7.21 7.21 0 0 0-3.13 5.946c0 3.99 3.241 7.227 7.238 7.227a7.2 7.2 0 0 0 4.86-1.883h.024l5.759-5.747 4.553 4.545a7.24 7.24 0 0 0 6.02 3.216c3.997 0 7.238-3.236 7.238-7.227a7.2 7.2 0 0 0-1.848-4.811l.006-.051z" fill="#000"/></svg>